<mxfile host="app.diagrams.net" modified="2024-07-10T11:08:02.225Z" agent="Mozilla/5.0 (Macintosh; Intel Mac OS X 10_15_7) AppleWebKit/537.36 (KHTML, like Gecko) Chrome/126.0.0.0 Safari/537.36" version="24.6.4" etag="IgwIl6_thn-tSzdx7Q_P" type="github">
  <diagram name="Page-1" id="DtRPSw0Q84hj6Syw1lVk">
    <mxGraphModel>
      <root>
        <mxCell id="0" />
        <mxCell id="1" parent="0" />
      </root>
    </mxGraphModel>
  </diagram>
</mxfile>
